<?xml version="1.0" encoding="UTF-8"?>
<svg width="600" height="400" viewBox="0 0 600 400" xmlns="http://www.w3.org/2000/svg">
  <!-- Background -->
  <rect width="600" height="400" fill="#1e293b"/>
  
  <!-- Book -->
  <g transform="translate(150, 100)">
    <!-- Book cover -->
    <rect x="0" y="0" width="300" height="200" fill="#b45309" rx="10"/>
    
    <!-- Book spine -->
    <rect x="0" y="0" width="20" height="200" fill="#92400e"/>
    
    <!-- Pages -->
    <rect x="20" y="0" width="280" height="200" fill="#f59e0b" opacity="0.7"/>
    
    <!-- Decorative lines -->
    <line x1="40" y1="20" x2="280" y2="20" stroke="#d97706" stroke-width="2"/>
    <line x1="40" y1="40" x2="280" y2="40" stroke="#d97706" stroke-width="2"/>
    <line x1="40" y1="60" x2="280" y2="60" stroke="#d97706" stroke-width="2"/>
    <line x1="40" y1="80" x2="280" y2="80" stroke="#d97706" stroke-width="2"/>
    <line x1="40" y1="100" x2="280" y2="100" stroke="#d97706" stroke-width="2"/>
    <line x1="40" y1="120" x2="280" y2="120" stroke="#d97706" stroke-width="2"/>
    <line x1="40" y1="140" x2="280" y2="140" stroke="#d97706" stroke-width="2"/>
    <line x1="40" y1="160" x2="280" y2="160" stroke="#d97706" stroke-width="2"/>
    <line x1="40" y1="180" x2="280" y2="180" stroke="#d97706" stroke-width="2"/>
  </g>
  
  <!-- Title -->
  <text x="300" y="50" text-anchor="middle" fill="white" font-size="24" font-weight="bold">Referências</text>
  
  <!-- Decorative elements -->
  <circle cx="300" cy="350" r="20" fill="#fbbf24" opacity="0.3"/>
  <path d="M100,300 Q300,350 500,300" stroke="#fbbf24" stroke-width="2" fill="none"/>
</svg> 